<?xml version="1.0" encoding="UTF-8"?>
<svg width="64.866mm" height="64.866mm" version="1.1" viewBox="0 0 64.866 64.866" xml:space="preserve" xmlns="http://www.w3.org/2000/svg"><g transform="translate(-15.238,-16.29)"><circle transform="matrix(.32433 0 0 .32433 15.238 16.29)" cx="100" cy="100" r="100" fill="#6284fd" style="paint-order:fill markers stroke"/><g transform="matrix(.32433 0 0 .32433 15.238 16.29)" fill="#fff" stroke="#000" stroke-linejoin="round"><path d="m129.69 62.028c19.145-1.8e-5 34.666 15.121 34.666 33.774l-17.69-0.05762-7.045-7.7197-9.6189 7.7197-34.978 0.05762c3.3e-5 -18.653 15.521-33.774 34.666-33.774z" stroke-linecap="round" stroke-width="6" style="paint-order:fill markers stroke"/><path d="m92.897 121.91c1.6279 28.036-6.4379 41.602-6.4379 41.602l26.046 0.18087s17.167-54.388-5.8046-94l-14.679 5.1279v-0.2558l9.2715 1.8564" stroke-linecap="round" stroke-width="6" style="paint-order:fill markers stroke"/><path d="m71.771 44.005c-19.569-1.7e-5 -35.434 13.84-35.434 30.913h11.982l8.1015-8.3319 8.8846 7.366 41.9 0.96594c-4e-5 -17.073-15.864-30.913-35.434-30.913z" stroke-linecap="round" stroke-width="6" style="paint-order:fill markers stroke"/><path d="m66.115 80.061c-14.381 12.26-16.952 33.306-5.7417 47.007l52.079-44.398c-11.21-13.701-31.956-14.869-46.337-2.6088z" stroke-width="5.4843" style="paint-order:fill markers stroke"/></g></g></svg>
