<svg xmlns="http://www.w3.org/2000/svg" viewBox="0 0 100 100" preserveAspectRatio="xMidYMid" style="shape-rendering: auto; display: block; background: rgb(255, 255, 255);" width="200" height="200" xmlns:xlink="http://www.w3.org/1999/xlink"><g><g transform="rotate(0 50 50)">
  <rect fill="#0d0afd" height="7" width="3" ry="3.5" rx="1.5" y="22.5" x="48.5">
    <animate repeatCount="indefinite" begin="-0.9333333333333333s" dur="1s" keyTimes="0;1" values="1;0" attributeName="opacity"></animate>
  </rect>
</g><g transform="rotate(24 50 50)">
  <rect fill="#0d0afd" height="7" width="3" ry="3.5" rx="1.5" y="22.5" x="48.5">
    <animate repeatCount="indefinite" begin="-0.8666666666666667s" dur="1s" keyTimes="0;1" values="1;0" attributeName="opacity"></animate>
  </rect>
</g><g transform="rotate(48 50 50)">
  <rect fill="#0d0afd" height="7" width="3" ry="3.5" rx="1.5" y="22.5" x="48.5">
    <animate repeatCount="indefinite" begin="-0.8s" dur="1s" keyTimes="0;1" values="1;0" attributeName="opacity"></animate>
  </rect>
</g><g transform="rotate(72 50 50)">
  <rect fill="#0d0afd" height="7" width="3" ry="3.5" rx="1.5" y="22.5" x="48.5">
    <animate repeatCount="indefinite" begin="-0.7333333333333333s" dur="1s" keyTimes="0;1" values="1;0" attributeName="opacity"></animate>
  </rect>
</g><g transform="rotate(96 50 50)">
  <rect fill="#0d0afd" height="7" width="3" ry="3.5" rx="1.5" y="22.5" x="48.5">
    <animate repeatCount="indefinite" begin="-0.6666666666666666s" dur="1s" keyTimes="0;1" values="1;0" attributeName="opacity"></animate>
  </rect>
</g><g transform="rotate(120 50 50)">
  <rect fill="#0d0afd" height="7" width="3" ry="3.5" rx="1.5" y="22.5" x="48.5">
    <animate repeatCount="indefinite" begin="-0.6s" dur="1s" keyTimes="0;1" values="1;0" attributeName="opacity"></animate>
  </rect>
</g><g transform="rotate(144 50 50)">
  <rect fill="#0d0afd" height="7" width="3" ry="3.5" rx="1.5" y="22.5" x="48.5">
    <animate repeatCount="indefinite" begin="-0.5333333333333333s" dur="1s" keyTimes="0;1" values="1;0" attributeName="opacity"></animate>
  </rect>
</g><g transform="rotate(168 50 50)">
  <rect fill="#0d0afd" height="7" width="3" ry="3.5" rx="1.5" y="22.5" x="48.5">
    <animate repeatCount="indefinite" begin="-0.4666666666666667s" dur="1s" keyTimes="0;1" values="1;0" attributeName="opacity"></animate>
  </rect>
</g><g transform="rotate(192 50 50)">
  <rect fill="#0d0afd" height="7" width="3" ry="3.5" rx="1.5" y="22.5" x="48.5">
    <animate repeatCount="indefinite" begin="-0.4s" dur="1s" keyTimes="0;1" values="1;0" attributeName="opacity"></animate>
  </rect>
</g><g transform="rotate(216 50 50)">
  <rect fill="#0d0afd" height="7" width="3" ry="3.5" rx="1.5" y="22.5" x="48.5">
    <animate repeatCount="indefinite" begin="-0.3333333333333333s" dur="1s" keyTimes="0;1" values="1;0" attributeName="opacity"></animate>
  </rect>
</g><g transform="rotate(240 50 50)">
  <rect fill="#0d0afd" height="7" width="3" ry="3.5" rx="1.5" y="22.5" x="48.5">
    <animate repeatCount="indefinite" begin="-0.26666666666666666s" dur="1s" keyTimes="0;1" values="1;0" attributeName="opacity"></animate>
  </rect>
</g><g transform="rotate(264 50 50)">
  <rect fill="#0d0afd" height="7" width="3" ry="3.5" rx="1.5" y="22.5" x="48.5">
    <animate repeatCount="indefinite" begin="-0.2s" dur="1s" keyTimes="0;1" values="1;0" attributeName="opacity"></animate>
  </rect>
</g><g transform="rotate(288 50 50)">
  <rect fill="#0d0afd" height="7" width="3" ry="3.5" rx="1.5" y="22.5" x="48.5">
    <animate repeatCount="indefinite" begin="-0.13333333333333333s" dur="1s" keyTimes="0;1" values="1;0" attributeName="opacity"></animate>
  </rect>
</g><g transform="rotate(312 50 50)">
  <rect fill="#0d0afd" height="7" width="3" ry="3.5" rx="1.5" y="22.5" x="48.5">
    <animate repeatCount="indefinite" begin="-0.06666666666666667s" dur="1s" keyTimes="0;1" values="1;0" attributeName="opacity"></animate>
  </rect>
</g><g transform="rotate(336 50 50)">
  <rect fill="#0d0afd" height="7" width="3" ry="3.5" rx="1.5" y="22.5" x="48.5">
    <animate repeatCount="indefinite" begin="0s" dur="1s" keyTimes="0;1" values="1;0" attributeName="opacity"></animate>
  </rect>
</g><g></g></g><!-- [ldio] generated by https://loading.io --></svg>